<?xml version="1.0" encoding="UTF-8" standalone="no"?>
<svg
   width="30"
   height="32"
   viewBox="0 0 30 32"
   fill="none"
   version="1.1"
   id="svg1"
   sodipodi:docname="call.svg"
   inkscape:version="1.3 (0e150ed6c4, 2023-07-21)"
   xmlns:inkscape="http://www.inkscape.org/namespaces/inkscape"
   xmlns:sodipodi="http://sodipodi.sourceforge.net/DTD/sodipodi-0.dtd"
   xmlns="http://www.w3.org/2000/svg"
   xmlns:svg="http://www.w3.org/2000/svg">
  <defs
     id="defs1" />
  <sodipodi:namedview
     id="namedview1"
     pagecolor="#ffffff"
     bordercolor="#000000"
     borderopacity="0.25"
     inkscape:showpageshadow="2"
     inkscape:pageopacity="0.0"
     inkscape:pagecheckerboard="0"
     inkscape:deskcolor="#d1d1d1"
     inkscape:zoom="22.627417"
     inkscape:cx="17.081048"
     inkscape:cy="15.313281"
     inkscape:window-width="1920"
     inkscape:window-height="1012"
     inkscape:window-x="0"
     inkscape:window-y="0"
     inkscape:window-maximized="1"
     inkscape:current-layer="svg1" />
  <path
     style="fill:#d6d3d1;stroke:none;stroke-width:0.043;stroke-opacity:1;stroke-dasharray:none;fill-opacity:1"
     d="M 21.604714,29.29069 C 20.085073,29.082544 18.066069,28.294651 16.234354,27.194967 14.142187,25.938919 11.82677,24.065 9.713127,21.917191 6.0605411,18.205562 3.3095905,13.887438 2.4954208,10.587669 1.874391,8.0706821 2.16455,5.9366097 3.3382475,4.3888149 3.5990639,4.0448675 4.1227242,3.504308 4.4101198,3.282352 4.95025,2.8652088 5.4861767,2.6610075 6.0501031,2.6574777 c 0.5830452,-0.00365 0.966248,0.1825455 1.2777699,0.6208577 0.6589188,0.9271004 3.460987,5.0731669 3.558245,5.2649402 0.391677,0.7723053 0.286592,1.0289794 -0.9825313,2.3998804 -0.8568186,0.925531 -0.9475443,1.048421 -1.0688439,1.447774 -0.073648,0.242469 -0.085579,0.366674 -0.067756,0.705342 0.023191,0.440668 0.087279,0.676412 0.3028738,1.114114 0.5090101,1.033394 2.0739934,2.913081 4.1335584,4.96478 1.358415,1.353226 1.977683,1.905639 2.788313,2.487295 1.159236,0.831792 1.885058,0.992652 2.724667,0.603853 0.252193,-0.116785 0.382009,-0.229351 1.054573,-0.914442 0.421838,-0.429695 0.853674,-0.849648 0.959637,-0.933229 0.265871,-0.209713 0.665199,-0.413317 0.810638,-0.413317 0.147231,0 0.686402,0.240591 0.965784,0.430956 0.727982,0.49603 4.923001,3.614246 5.063936,3.764094 0.247968,0.26365 0.336094,0.579564 0.305894,1.096576 -0.03339,0.571681 -0.267042,1.161887 -0.705296,1.78161 -0.255113,0.360749 -0.934795,1.041666 -1.286079,1.288416 -0.53579,0.376352 -1.291771,0.699559 -2.023968,0.865316 -0.359876,0.08147 -1.813703,0.119088 -2.256804,0.0584 z"
     id="path2" />
  <path
     style="fill:#333333;stroke:#d6d3d1;stroke-width:0.0426099;stroke-opacity:1"
     d=""
     id="path7" />
  <path
     style="fill:#333333;stroke:#d6d3d1;stroke-width:0.0426099;stroke-opacity:1"
     d="m 7.7123835,19.792277 c -0.014484,-0.02343 -0.00603,-0.04261 0.01879,-0.04261 0.024818,0 0.045125,0.01918 0.045125,0.04261 0,0.02344 -0.00846,0.04261 -0.01879,0.04261 -0.010335,0 -0.030641,-0.01917 -0.045125,-0.04261 z"
     id="path8" />
</svg>
