<?xml version="1.0" encoding="utf-8"?>
<!-- Generator: Adobe Illustrator 23.0.2, SVG Export Plug-In . SVG Version: 6.00 Build 0)  -->
<svg version="1.1" id="Capa_2" xmlns="http://www.w3.org/2000/svg" xmlns:xlink="http://www.w3.org/1999/xlink" x="0px" y="0px"
	 viewBox="0 0 1000 447" style="enable-background:new 0 0 1000 447;" xml:space="preserve">
<style type="text/css">
	.st0{fill:#D12415;}
</style>
<polygon class="st0" points="263.8,223.6 139.1,447.1 -1,447.1 123.8,223.6 123.7,223.6 -1,0.2 139.1,0.2 "/>
<polygon class="st0" points="449.3,223.6 324.5,447.1 184.4,447.1 309.2,223.6 184.5,0.2 324.5,0.2 449.2,223.6 "/>
<polygon class="st0" points="634.5,223.6 509.7,447.1 369.6,447.1 494.4,223.6 369.7,0.2 509.7,0.2 634.4,223.6 "/>
<polygon class="st0" points="816.9,223.6 692.1,447.1 552,447.1 676.8,223.6 552.1,0.2 692.1,0.2 "/>
<polygon class="st0" points="999,223.6 874.2,447.1 734.1,447.1 858.9,223.6 858.8,223.6 734.1,0.2 874.2,0.2 "/>
</svg>
